<?xml version="1.0" encoding="UTF-8"?>
<svg id="Layer_1" data-name="Layer 1" xmlns="http://www.w3.org/2000/svg" xmlns:xlink="http://www.w3.org/1999/xlink" viewBox="0 0 500 500">
  <defs>
    <style>
      .cls-1 {
        fill: #2f5fa7;
      }

      .cls-2 {
        stroke: #000;
        stroke-miterlimit: 10;
        stroke-width: .75px;
      }

      .cls-3 {
        fill: #cc5557;
        filter: url(#drop-shadow-1);
      }
    </style>
    <filter id="drop-shadow-1" x="20" y="75" width="343" height="281" filterUnits="userSpaceOnUse">
      <feOffset dx="7" dy="7"/>
      <feGaussianBlur result="blur" stdDeviation="5"/>
      <feFlood flood-color="#000" flood-opacity=".75"/>
      <feComposite in2="blur" operator="in"/>
      <feComposite in="SourceGraphic"/>
    </filter>
  </defs>
  <path class="cls-1" d="M500,250c0,69.04-27.98,131.54-73.22,176.78-45.24,45.24-107.74,73.22-176.78,73.22-16.82,0-33.24-1.66-49.12-4.82-15.88-3.17-31.22-7.84-45.87-13.86h-.01l-30.39-15.14-1.63-.81C49.37,421.86,0,341.7,0,250,0,180.96,27.98,118.46,73.22,73.22,118.46,27.98,180.96,0,250,0s131.54,27.98,176.78,73.22c45.24,45.24,73.22,107.74,73.22,176.78Z"/>
  <path class="cls-3" d="M79.59,167.52l-.08-9.07,46.37-21.34.07,9.08-19.01,8.74.54,66.18-8.35,3.84-.54-66.18-19.01,8.75ZM171.98,160.56l.05,6.64c.06,7.82-1.65,14.79-5.13,20.91-3.42,6.09-8.36,10.62-14.82,13.6-6.4,2.95-11.38,2.98-14.93.1-3.56-2.88-5.37-8.23-5.43-16.05l-.05-6.64c-.06-7.67,1.62-14.56,5.03-20.65,3.48-6.19,8.46-10.78,14.92-13.75,6.46-2.97,11.44-2.97,14.93.02,3.56,2.88,5.37,8.16,5.43,15.83ZM163.82,164.31c-.04-5.24-1.1-8.86-3.17-10.87-2.07-2.08-5.06-2.23-8.97-.43-3.84,1.77-6.8,4.65-8.89,8.65-2.02,3.89-3.01,8.46-2.97,13.7l.05,6.64c.05,5.46,1.1,9.19,3.18,11.2,2.14,1.98,5.13,2.08,8.96.32,3.9-1.8,6.87-4.64,8.89-8.53,2.02-3.89,3.01-8.57,2.97-14.03l-.05-6.64ZM220.23,169.24l-.06-7.64c-2.92,4.6-5.59,8.12-8.01,10.57-2.36,2.34-4.82,4.1-7.38,5.28-5.06,2.33-8.98,1.91-11.77-1.25-2.72-3.19-4.12-8.77-4.18-16.74l-.05-6.42c-.06-7.75,1.55-14.67,4.84-20.78,3.35-6.14,8.23-10.68,14.63-13.62,1.85-.85,3.71-1.49,5.57-1.9,1.86-.41,3.72-.64,5.58-.68l-.23-28.55,7.87-3.62.67,81.89-7.49,3.45ZM197,155.71c.05,5.76.85,9.64,2.41,11.67,1.62,1.92,4,2.16,7.14.72,1.86-.85,3.77-2.25,5.75-4.2,1.98-2.02,4.45-5.42,7.43-10.2l-.24-29.22c-1.86-.1-3.66.06-5.39.48-1.73.35-3.43.91-5.09,1.68-4.35,2-7.47,4.96-9.37,8.87-1.83,3.88-2.72,8.47-2.68,13.79l.05,6.42ZM286.86,107.7l.05,6.64c.06,7.82-1.65,14.79-5.13,20.91-3.42,6.09-8.36,10.62-14.82,13.6-6.4,2.95-11.38,2.98-14.94.1-3.56-2.88-5.37-8.23-5.43-16.05l-.05-6.64c-.06-7.67,1.62-14.55,5.03-20.65,3.48-6.19,8.46-10.78,14.92-13.75,6.46-2.98,11.44-2.97,14.94.01,3.56,2.88,5.37,8.16,5.43,15.83ZM278.7,111.45c-.04-5.24-1.1-8.86-3.17-10.87-2.07-2.08-5.06-2.23-8.97-.43-3.84,1.77-6.8,4.65-8.89,8.65-2.02,3.89-3.01,8.46-2.97,13.7l.05,6.64c.04,5.46,1.1,9.19,3.18,11.2,2.14,1.98,5.12,2.09,8.96.32,3.9-1.79,6.87-4.64,8.89-8.53,2.02-3.89,3.01-8.57,2.97-14.03l-.05-6.64ZM48.33,321.26c4.03-1.86,7.13-4.28,9.29-7.27,2.16-3.07,3.22-6.56,3.19-10.47-.03-3.25-.82-5.62-2.37-7.13-1.49-1.54-3.94-2.11-7.34-1.73l-7.8.92c-4.88.54-8.48-.36-10.81-2.69-2.33-2.41-3.52-6.12-3.56-11.14-.03-3.84.58-7.6,1.83-11.29,1.32-3.72,3.41-7.16,6.27-10.33,2.93-3.2,6.76-5.89,11.5-8.07,2.88-1.33,5.86-2.29,8.94-2.89,3.08-.68,6.19-.89,9.34-.63l-2.62,9.54c-3.08-.14-5.88.04-8.38.52-2.44.38-4.78,1.09-7.02,2.12-3.65,1.68-6.49,3.88-8.52,6.59-1.97,2.61-2.94,5.91-2.91,9.89.02,2.88.72,5,2.08,6.38,1.36,1.3,3.77,1.78,7.24,1.45l7.8-.92c9.75-1.16,14.68,3.76,14.77,14.76.05,6.34-1.57,12.28-4.86,17.79-3.3,5.44-8.62,9.85-15.98,13.24-3.01,1.38-6.21,2.45-9.61,3.2-3.33.65-6.8.87-10.4.68l2.52-9.38c3.41.21,6.46.07,9.15-.43,2.76-.53,5.51-1.43,8.26-2.69ZM112.78,297.16c-3.57,3.71-7.37,6.5-11.4,8.36-3.46,1.59-6.18,2.03-8.18,1.32-1.93-.74-3.33-2.28-4.18-4.63-.79-2.38-1.2-5.23-1.23-8.55l-.25-29.88-8.26,3.8-.07-7.97,8.26-3.8-.13-15.27,7.87-3.62.12,15.27,15.55-7.16.06,7.97-15.55,7.15.24,29.55c.03,3.84.6,6.24,1.7,7.22,1.16.87,2.93.76,5.3-.33,1.15-.53,2.34-1.22,3.55-2.08,1.28-.96,2.65-2.18,4.11-3.67l2.46,6.31ZM152.52,233.88c-2.88,1.33-5.69,3.21-8.43,5.66-2.68,2.42-5.54,5.99-8.58,10.73l.31,38.29-7.87,3.62-.45-54.78,7.49-3.45.07,8.86c3.23-5.19,6.19-9.14,8.86-11.86,2.74-2.74,5.58-4.79,8.53-6.14l.08,9.07ZM202.43,254.68c-2.87,2.95-5.74,5.38-8.61,7.29-2.87,1.99-5.53,3.54-7.96,4.66-6.85,3.15-11.98,3.26-15.41.32-3.36-2.97-5.08-8.36-5.14-16.18l-.05-6.64c-.06-7.6,1.55-14.45,4.84-20.56,3.35-6.13,8.1-10.62,14.25-13.44,3.26-1.5,6.25-2.1,8.95-1.78,2.76.21,4.96,1.49,6.58,3.86,1.69,2.26,2.55,5.79,2.59,10.58.02,3.1-.33,6.82-1.07,11.15l-28.32,13.03v.22c.05,5.61,1.08,9.39,3.08,11.36,2.07,1.94,5.35,1.87,9.83-.19,2.05-.94,4.29-2.27,6.71-3.98,2.49-1.74,4.91-3.78,7.27-6.12l2.46,6.42ZM184.4,218.1c-3.71,1.71-6.52,4.4-8.41,8.09-1.83,3.58-2.83,7.93-2.98,13.03l21.5-9.89c.18-1.42.27-2.72.26-3.89-.03-4.13-1.08-6.69-3.15-7.66-2-1.08-4.41-.97-7.23.33ZM255.92,233.85c-2.94,1.35-5.32,1.67-7.12.94-1.74-.75-2.97-2.11-3.7-4.08-3.11,4.62-5.94,8.18-8.49,10.68-2.55,2.43-5.11,4.24-7.66,5.42-4.16,1.92-7.24,1.78-9.25-.41-2.01-2.19-3.03-5.53-3.07-10.03-.02-3.02.43-5.94,1.37-8.74.94-2.8,2.56-5.4,4.85-7.78,2.29-2.46,5.39-4.59,9.29-6.39,1.73-.8,3.62-1.52,5.67-2.16,2.05-.72,4.13-1.38,6.25-1.99l-.06-7.42c-.03-4.13-.86-6.57-2.47-7.31-1.55-.84-3.83-.57-6.83.81-4.1,1.88-8.66,5.28-13.69,10.19l-2.56-6.38c2.93-2.9,5.74-5.38,8.42-7.43,2.68-2.05,5.4-3.71,8.15-4.97,4.48-2.06,7.91-2.79,10.29-2.18,2.38.61,4.03,2.11,4.95,4.5.92,2.39,1.39,5.25,1.42,8.57l.19,23.68c.01,1.7.31,3,.9,3.92.58.84,1.74.86,3.47.07l1.06-.49.07,8.3-1.44.66ZM224.41,232.69c.02,2.51.55,4.3,1.59,5.38,1.04,1.08,2.52,1.18,4.43.29,1.66-.77,3.58-2.2,5.75-4.31,2.17-2.18,4.83-5.74,8.01-10.68l-.06-6.97c-4.36,1.19-8.2,2.55-11.53,4.08-2.94,1.35-5.05,3.03-6.32,5.02-1.27,1.99-1.89,4.39-1.87,7.19ZM295.29,167.63c-1.79.82-3.8,2.3-6.03,4.44-2.23,2.06-5.03,5.43-8.4,10.08l.32,39.51-7.87,3.62-.45-54.78,7.49-3.45.06,7.64c3.37-4.81,6.35-8.44,8.97-10.9,2.61-2.54,5.2-4.39,7.76-5.57,3.01-1.38,5.51-1.72,7.51-1.01,2,.64,3.49,2.21,4.47,4.72,3.49-5.09,6.61-8.93,9.35-11.52,2.8-2.62,5.55-4.55,8.24-5.79,4.22-1.94,7.47-1.81,9.74.41,2.27,2.14,3.42,6.16,3.47,12.07l.31,37.4-7.87,3.62-.3-36.08c-.06-7.53-2.46-10.2-7.2-8.02-1.79.82-3.83,2.32-6.13,4.49-2.23,2.06-5.03,5.43-8.4,10.08.07.27.1.58.1.95,0,.37,0,.74,0,1.11l.31,37.41-7.87,3.62-.3-36.08c-.06-7.52-2.49-10.18-7.29-7.97Z"/>
  <path class="cls-2" d="M155.01,481.32h-.01l-30.39-15.14c182.59-10.28,262.55-132.49,239.91-366.61l20.18,24.4c16.45,207.68-51.29,335.19-229.69,357.35Z"/>
  <path class="cls-2" d="M437.54,210.86c-.95-5.57-2.62-12.41-5.64-19.88-2.34-5.8-4.99-10.7-7.48-14.71-.9-1.29-1.8-2.58-2.71-3.87-13.59-19.3-27.72-37.52-42.24-54.72-3.93,3.3-7.87,6.6-11.8,9.9l69.87,83.27Z"/>
</svg>